<?xml version="1.0" standalone="no"?>
<!DOCTYPE svg PUBLIC "-//W3C//DTD SVG 20010904//EN"
 "http://www.w3.org/TR/2001/REC-SVG-20010904/DTD/svg10.dtd">
<svg version="1.0" xmlns="http://www.w3.org/2000/svg"
 width="170.000000pt" height="170.000000pt" viewBox="0 0 170.000000 170.000000"
 preserveAspectRatio="xMidYMid meet">
<metadata>
Created by potrace 1.16, written by Peter Selinger 2001-2019
</metadata>
<g transform="translate(0.000000,170.000000) scale(0.100000,-0.100000)"
fill="#000000" stroke="none">
<path d="M785 1574 c-11 -2 -45 -9 -75 -15 -262 -49 -489 -273 -555 -548 -27
-107 -17 -300 19 -406 39 -114 98 -209 186 -295 123 -122 249 -182 424 -202
233 -28 490 79 634 263 110 141 162 291 162 469 0 298 -161 550 -433 675 -104
48 -275 76 -362 59z m211 -75 c32 -5 101 -31 153 -56 128 -63 226 -160 292
-288 64 -123 82 -207 77 -343 -20 -507 -555 -808 -990 -556 -141 82 -261 245
-309 419 -30 112 -24 277 15 383 84 227 253 383 471 438 63 15 213 17 291 3z"/>
<path d="M704 1442 c-115 -34 -174 -70 -264 -161 -63 -63 -95 -106 -123 -161
-170 -339 6 -759 366 -875 157 -50 344 -27 488 61 118 71 229 212 270 344 32
100 36 237 10 339 -50 200 -209 375 -402 442 -89 31 -258 36 -345 11z m243
-90 c6 -4 13 -25 15 -46 3 -36 6 -39 62 -62 l60 -24 27 26 c19 18 33 24 48 19
23 -7 121 -111 121 -128 0 -6 -12 -23 -26 -39 -25 -25 -26 -29 -12 -50 8 -13
20 -40 27 -60 12 -35 15 -37 59 -40 l47 -3 3 -70 c2 -38 0 -85 -3 -102 -6 -31
-8 -33 -50 -33 -37 0 -45 -4 -51 -22 -3 -13 -15 -43 -26 -67 l-20 -44 26 -24
c14 -13 26 -28 26 -34 0 -5 -29 -40 -64 -76 l-64 -65 -35 26 -35 27 -59 -25
c-56 -23 -58 -25 -61 -65 l-3 -41 -99 0 -99 0 -3 41 c-3 40 -5 42 -62 65 l-59
24 -29 -25 c-36 -31 -44 -27 -122 55 l-59 61 30 32 30 32 -23 50 c-13 28 -24
56 -24 63 0 8 -16 12 -45 12 -54 0 -57 8 -53 125 l3 80 48 3 c28 2 47 8 47 15
0 7 11 35 24 62 l23 50 -29 31 -29 31 56 61 c70 75 88 82 124 48 l27 -26 62
27 c60 26 62 27 62 64 0 20 6 40 13 42 19 8 161 7 174 -1z"/>
<path d="M743 1216 c-227 -73 -336 -324 -235 -539 88 -190 296 -271 498 -196
80 30 183 133 213 213 43 116 38 222 -16 332 -20 42 -24 57 -15 66 23 23 8 78
-22 78 -6 0 -5 -5 2 -12 7 -7 12 -18 12 -25 0 -12 -302 -315 -321 -321 -5 -2
-43 26 -85 63 -41 37 -76 66 -77 64 -50 -73 -27 -188 50 -246 32 -25 45 -28
108 -28 63 0 76 3 109 29 65 49 78 79 73 169 -6 84 6 101 24 35 32 -121 -48
-242 -173 -263 -21 -4 -38 -11 -38 -16 0 -26 110 9 162 51 71 59 99 171 63
257 -10 24 -12 40 -5 47 13 13 42 -55 48 -116 19 -189 -199 -330 -374 -243
-98 49 -144 123 -144 230 0 60 5 78 30 123 49 84 161 149 214 124 12 -6 37
-13 56 -16 19 -4 42 -10 50 -16 26 -16 4 -21 -44 -9 -47 12 -73 6 -46 -11 8
-6 25 -10 37 -10 12 0 24 -4 27 -8 3 -5 -22 -6 -55 -4 -51 4 -119 -10 -119
-25 0 -7 94 -92 102 -93 4 0 65 55 134 123 l127 123 -78 39 c-71 36 -86 40
-164 42 -52 2 -103 -3 -128 -11z"/>
</g>
</svg>
