<?xml version="1.0" standalone="no"?>
<!DOCTYPE svg PUBLIC "-//W3C//DTD SVG 20010904//EN"
 "http://www.w3.org/TR/2001/REC-SVG-20010904/DTD/svg10.dtd">
<svg version="1.0" xmlns="http://www.w3.org/2000/svg"
 width="650.000000pt" height="170.000000pt" viewBox="0 0 650.000000 170.000000"
 preserveAspectRatio="xMidYMid meet">
<metadata>
Created by potrace 1.16, written by Peter Selinger 2001-2019
</metadata>
<g transform="translate(0.000000,170.000000) scale(0.100000,-0.100000)"
fill="#000000" stroke="none">
<path d="M810 1579 c0 -7 -11 -9 -35 -5 -24 5 -35 3 -35 -5 0 -7 -9 -9 -25 -5
-15 4 -25 2 -25 -4 0 -6 -8 -10 -17 -8 -10 1 -24 -1 -30 -5 -7 -5 -13 -5 -13
0 0 4 -4 2 -9 -5 -4 -7 -18 -14 -29 -15 -12 -1 -22 -5 -22 -10 0 -4 -4 -5 -10
-2 -5 3 -10 1 -10 -5 0 -6 -4 -9 -9 -5 -5 3 -15 0 -23 -7 -7 -7 -20 -14 -28
-16 -8 -2 -23 -12 -32 -24 -10 -11 -18 -16 -18 -12 -1 5 -9 -1 -19 -13 -10
-12 -21 -20 -23 -17 -4 4 -52 -46 -101 -106 -26 -33 -71 -103 -88 -140 -23
-50 -29 -66 -45 -115 -19 -62 -36 -327 -22 -336 6 -4 7 -16 3 -28 -4 -13 -2
-21 5 -21 7 0 10 -7 6 -15 -3 -8 0 -15 5 -15 6 0 9 -9 6 -20 -3 -11 -1 -20 4
-20 4 0 6 -6 3 -14 -3 -7 2 -20 10 -29 8 -8 13 -17 10 -20 -8 -8 25 -67 37
-67 6 0 8 -4 5 -8 -3 -5 3 -18 14 -29 10 -12 16 -23 14 -26 -3 -3 6 -13 20
-22 14 -10 24 -21 21 -25 -2 -4 20 -29 49 -56 71 -65 83 -74 96 -74 5 0 10 -3
10 -7 0 -5 10 -13 23 -19 12 -6 36 -18 52 -27 72 -37 151 -59 283 -77 59 -8
87 -8 96 -1 7 6 27 8 45 5 21 -4 31 -3 31 5 0 8 8 10 20 6 12 -4 20 -2 20 5 0
7 8 10 20 7 11 -3 23 -1 26 4 3 5 10 7 15 4 5 -4 9 -2 9 4 0 6 7 8 15 5 8 -4
15 -1 15 6 0 6 5 8 10 5 6 -3 10 -1 10 5 0 6 5 8 10 5 6 -3 10 -1 10 5 0 6 5
8 10 5 6 -3 10 -1 10 5 0 6 5 8 10 5 6 -3 10 -1 10 5 0 6 4 9 8 6 5 -3 19 4
30 15 12 11 22 16 22 12 1 -4 9 2 19 14 10 12 21 20 23 17 3 -2 26 19 52 48
26 29 54 60 62 69 8 9 14 21 14 27 0 7 4 12 8 12 12 0 66 106 97 190 21 60 28
104 35 215 6 97 6 141 -2 146 -5 4 -7 16 -3 28 4 13 2 21 -5 21 -7 0 -10 7 -7
15 4 8 2 17 -4 21 -6 3 -8 12 -5 20 3 8 1 14 -5 14 -6 0 -9 7 -5 15 3 8 -1 21
-9 29 -8 7 -11 16 -8 20 4 3 1 6 -6 6 -7 0 -9 5 -6 10 3 6 1 10 -5 10 -6 0 -8
5 -5 10 3 6 1 10 -5 10 -6 0 -8 5 -5 10 3 6 1 10 -5 10 -6 0 -8 5 -5 10 3 6
-1 13 -9 16 -9 3 -13 10 -10 15 3 5 -2 12 -10 15 -9 3 -14 10 -11 14 3 5 -4
15 -15 23 -11 7 -18 16 -15 19 3 3 -14 22 -37 42 -24 21 -53 46 -64 57 -12 10
-27 19 -33 19 -6 0 -11 4 -11 9 0 5 -8 11 -17 15 -10 3 -41 19 -70 34 -65 36
-138 59 -233 72 -41 6 -90 13 -107 16 -21 3 -33 1 -33 -7z m160 -83 c0 -4 11
-5 25 -2 15 4 25 2 25 -4 0 -7 8 -9 20 -5 12 4 20 2 20 -5 0 -6 5 -8 10 -5 6
3 10 2 10 -4 0 -6 7 -8 15 -5 8 4 15 2 15 -4 0 -10 53 -36 66 -32 4 1 10 -2
13 -7 14 -19 54 -47 47 -33 -4 8 1 4 13 -10 11 -14 23 -25 28 -25 10 0 123
-116 123 -126 0 -4 16 -33 35 -65 60 -100 78 -171 79 -311 1 -68 -3 -123 -8
-123 -4 0 -6 -9 -3 -20 3 -11 1 -20 -4 -20 -5 0 -7 -11 -3 -25 3 -14 2 -25 -3
-25 -5 0 -9 -10 -10 -22 -1 -11 -7 -24 -13 -28 -6 -4 -12 -17 -13 -28 -1 -12
-4 -22 -8 -22 -5 0 -23 -32 -29 -55 -2 -5 -10 -15 -19 -22 -9 -7 -12 -13 -7
-13 6 0 1 -6 -10 -14 -10 -8 -19 -18 -19 -23 -1 -15 -154 -153 -170 -153 -4 0
-19 -9 -34 -19 -64 -46 -314 -98 -332 -70 -5 8 -21 10 -48 5 -27 -4 -41 -2
-41 5 0 6 -8 8 -20 4 -12 -4 -20 -2 -20 5 0 7 -8 9 -20 5 -11 -3 -20 -3 -20 2
0 4 -12 9 -27 10 -15 0 -29 6 -31 12 -2 6 -8 9 -13 5 -5 -3 -9 0 -9 6 0 10
-52 36 -57 28 -1 -2 -9 6 -17 17 -9 11 -16 16 -16 11 0 -6 -6 -1 -14 10 -8 10
-18 19 -23 19 -12 1 -133 127 -133 139 0 2 -18 35 -39 73 -57 99 -82 200 -79
323 2 55 7 100 12 100 4 0 5 11 2 25 -4 15 -2 25 4 25 6 0 8 5 5 10 -4 6 -1
17 5 25 7 8 9 15 5 15 -4 0 -2 7 5 15 7 8 9 15 6 15 -4 0 0 7 9 16 9 9 14 23
11 30 -3 8 -2 14 2 14 4 0 16 14 25 30 10 17 15 30 11 30 -4 0 1 7 12 15 10 8
15 15 10 15 -6 0 -1 6 10 14 10 8 19 18 19 23 2 20 151 153 173 153 6 0 12 3
12 8 0 4 21 15 48 25 26 11 56 23 67 28 43 19 104 27 207 25 60 0 108 -5 108
-10z"/>
<path d="M760 1459 c0 -6 -9 -8 -20 -4 -12 4 -20 2 -20 -5 0 -7 -8 -9 -20 -5
-12 4 -20 2 -20 -5 0 -7 -7 -10 -15 -6 -8 3 -15 1 -15 -5 0 -6 -4 -7 -10 -4
-5 3 -10 1 -10 -5 0 -7 -6 -10 -12 -7 -15 5 -68 -23 -68 -36 0 -4 -4 -6 -9 -2
-6 3 -14 -3 -20 -12 -6 -10 -11 -14 -11 -9 0 16 -122 -117 -166 -183 -51 -76
-79 -161 -95 -295 -9 -78 -9 -100 1 -106 8 -5 10 -18 5 -39 -4 -21 -3 -31 5
-31 7 0 10 -7 6 -15 -3 -8 -1 -15 5 -15 6 0 9 -7 5 -15 -3 -8 -1 -15 5 -15 6
0 9 -7 5 -15 -3 -8 -1 -15 5 -15 6 0 7 -4 4 -10 -3 -5 -2 -10 4 -10 6 0 8 -6
5 -13 -2 -7 4 -22 15 -34 11 -11 17 -24 14 -27 -4 -3 -1 -6 6 -6 7 0 10 -4 6
-9 -3 -5 4 -16 15 -24 11 -7 17 -16 14 -19 -3 -3 9 -16 26 -28 16 -12 28 -26
25 -31 -4 -5 1 -9 9 -9 8 0 24 -14 36 -30 12 -17 28 -30 36 -30 8 0 14 -4 14
-10 0 -5 5 -10 12 -10 6 0 19 -7 28 -15 36 -33 163 -67 280 -75 63 -4 119 -4
124 0 5 5 15 6 22 3 8 -3 14 0 14 7 0 7 8 9 20 5 12 -4 20 -2 20 5 0 7 6 10
14 7 8 -3 16 -1 18 4 2 6 16 12 32 13 16 2 35 11 41 20 7 8 15 13 18 9 4 -3 7
-1 7 6 0 7 5 9 10 6 6 -3 13 1 16 9 3 9 10 14 15 11 4 -3 18 8 30 24 12 17 26
28 31 25 4 -3 12 6 18 20 5 14 21 32 35 42 14 9 25 23 25 30 0 8 4 14 9 14 5
0 11 8 15 18 3 9 17 35 30 57 45 75 97 375 66 375 -8 0 -10 9 -6 25 4 16 2 25
-5 25 -6 0 -9 7 -6 15 4 8 2 17 -3 20 -5 3 -7 12 -3 20 3 8 0 15 -7 15 -7 0
-10 7 -6 15 3 8 0 15 -6 15 -6 0 -9 3 -5 6 8 9 -21 64 -34 64 -6 0 -7 5 -4 10
3 6 1 10 -5 10 -6 0 -9 4 -5 9 3 6 -3 14 -12 20 -10 6 -14 11 -9 11 10 0 -110
115 -151 144 -52 38 -133 74 -200 89 -86 20 -243 30 -243 16z m180 -112 c0 -4
5 -5 10 -2 6 4 10 -8 10 -30 0 -35 21 -71 34 -58 3 4 6 1 6 -6 0 -7 5 -9 10
-6 6 3 10 2 10 -4 0 -6 6 -8 14 -5 7 3 20 -2 29 -10 21 -21 34 -20 42 3 10 33
29 43 56 29 34 -18 89 -73 106 -105 13 -24 12 -28 -13 -54 -25 -27 -26 -29
-11 -52 8 -13 20 -41 26 -63 9 -35 14 -39 44 -40 64 -1 67 -5 65 -94 -1 -44
-6 -80 -11 -80 -5 0 -7 -7 -3 -15 4 -12 -4 -15 -45 -15 -31 0 -48 -4 -44 -10
3 -5 2 -10 -4 -10 -6 0 -8 -7 -5 -15 4 -8 1 -15 -6 -15 -6 0 -9 -4 -5 -10 6
-10 -13 -49 -30 -63 -6 -4 2 -17 19 -32 29 -23 29 -25 16 -52 -23 -45 -107
-123 -125 -117 -8 4 -15 10 -15 16 0 5 5 6 12 2 7 -4 8 -3 4 5 -4 6 -11 9 -16
6 -5 -3 -17 -1 -27 6 -15 9 -28 7 -63 -9 -25 -11 -53 -22 -62 -26 -13 -4 -18
-16 -18 -46 l0 -41 -95 3 -95 3 0 32 c0 43 -9 63 -26 56 -8 -3 -14 0 -14 7 0
6 -4 8 -10 5 -5 -3 -10 -2 -10 4 0 6 -6 8 -14 5 -7 -3 -21 2 -30 11 -16 16
-18 15 -41 -9 -13 -14 -32 -25 -42 -23 -10 2 -46 32 -81 67 l-63 63 30 31 31
32 -19 34 c-10 19 -22 50 -25 68 -7 30 -10 32 -52 32 -52 0 -55 7 -51 120 l2
75 53 3 c42 2 52 6 48 18 -3 7 -1 14 4 14 5 0 7 6 4 14 -3 7 1 20 8 27 7 8 14
21 16 29 2 8 9 18 15 22 6 4 -2 17 -22 33 -31 27 -31 28 -14 48 10 11 12 17 4
12 -7 -4 13 18 44 49 31 31 63 56 69 56 17 0 58 -45 49 -54 -10 -9 26 4 52 20
11 6 37 17 58 24 37 12 39 14 35 51 -2 21 1 41 7 43 19 8 165 2 165 -7z"/>
<path d="M780 1228 c0 -6 -7 -8 -15 -5 -8 4 -17 2 -21 -4 -3 -6 -12 -8 -20 -5
-8 3 -14 1 -14 -5 0 -6 -4 -7 -10 -4 -5 3 -10 1 -10 -5 0 -6 -4 -8 -10 -5 -5
3 -10 1 -10 -5 0 -6 -4 -8 -10 -5 -5 3 -10 1 -10 -4 0 -6 -6 -11 -12 -11 -17
0 -78 -64 -111 -115 -14 -22 -32 -65 -40 -95 -20 -72 -30 -190 -16 -190 6 0 8
-9 4 -20 -4 -12 -2 -20 5 -20 7 0 10 -7 6 -15 -3 -8 -1 -15 4 -15 9 0 26 -39
22 -52 -1 -5 2 -8 8 -8 6 0 9 -4 8 -9 -2 -5 6 -17 17 -26 11 -9 13 -13 5 -10
-8 4 -1 -7 17 -24 18 -17 37 -31 42 -31 6 0 11 -4 11 -9 0 -33 272 -109 290
-81 4 7 13 9 19 5 7 -4 18 -1 26 5 8 6 19 9 25 5 5 -3 10 -1 10 5 0 7 6 10 14
7 8 -3 16 -2 18 3 2 5 10 10 18 12 8 2 23 11 32 21 9 10 19 18 23 17 10 -2 54
42 85 86 46 65 99 284 69 284 -7 0 -9 9 -5 25 4 15 2 25 -5 25 -6 0 -9 6 -7
12 3 7 -2 19 -9 27 -8 7 -12 20 -9 27 3 8 1 14 -5 14 -18 0 -28 44 -13 56 16
13 15 53 -3 72 -14 14 -33 16 -33 2 0 -5 5 -10 11 -10 20 0 5 -45 -16 -45 -11
-1 -19 -6 -18 -13 3 -13 -261 -275 -282 -280 -7 -2 -23 11 -35 27 -12 17 -27
31 -35 31 -7 0 -28 18 -45 40 -17 22 -35 40 -38 40 -9 0 -29 -65 -38 -119 -5
-29 -3 -41 5 -41 7 0 9 -4 6 -10 -3 -5 -2 -10 4 -10 6 0 14 -12 17 -26 9 -35
68 -70 144 -85 50 -10 64 -10 70 1 4 7 13 9 19 6 6 -4 11 -2 11 4 0 6 8 14 17
17 27 10 57 44 70 78 15 38 23 135 12 135 -5 0 -9 9 -9 20 0 34 19 22 29 -17
11 -47 11 -103 -1 -103 -5 0 -7 -9 -3 -19 4 -13 -3 -29 -21 -48 -14 -15 -31
-35 -38 -44 -14 -20 -69 -47 -112 -55 -44 -8 -52 -22 -18 -30 17 -4 29 -2 34
6 4 7 13 9 19 6 6 -4 11 -2 11 4 0 7 7 10 15 6 8 -3 15 -1 15 5 0 6 5 7 10 4
6 -3 10 -2 10 4 0 5 12 16 27 23 15 7 32 23 38 34 6 12 16 29 23 37 17 20 32
160 19 168 -5 4 -6 12 -3 18 4 6 2 11 -4 11 -6 0 -9 4 -6 9 4 5 1 11 -6 13 -8
3 -6 6 4 10 12 5 20 -4 31 -40 16 -50 18 -132 4 -132 -5 0 -7 -7 -3 -15 3 -8
1 -15 -4 -15 -5 0 -7 -7 -4 -15 3 -8 -6 -25 -20 -40 -14 -14 -22 -25 -19 -25
3 0 -2 -9 -12 -20 -10 -11 -24 -20 -32 -20 -7 0 -13 -4 -13 -9 0 -18 -87 -41
-148 -39 -34 2 -62 6 -62 10 0 4 -7 5 -15 2 -8 -4 -15 -1 -15 6 0 6 -4 8 -10
5 -5 -3 -10 -1 -10 4 0 6 -4 10 -8 9 -16 -5 -91 71 -112 111 -15 31 -19 56
-18 110 1 39 6 71 11 71 4 0 5 5 2 10 -3 6 -1 10 5 10 6 0 8 5 5 10 -3 6 -1
10 5 10 6 0 9 4 6 9 -7 11 64 85 101 104 48 25 97 31 112 13 9 -10 22 -14 37
-10 14 4 24 2 24 -5 0 -6 7 -8 15 -5 8 4 15 1 15 -6 0 -6 5 -8 10 -5 6 3 10 1
10 -5 0 -8 -9 -10 -26 -6 -64 16 -84 18 -84 7 0 -6 12 -13 28 -17 77 -17 68
-24 -17 -14 -48 6 -67 5 -77 -5 -8 -7 -19 -15 -26 -18 -7 -2 -11 -6 -8 -8 3
-2 27 -24 52 -48 45 -42 48 -44 66 -28 10 9 23 17 28 17 18 0 219 212 206 217
-7 3 -18 10 -25 17 -29 28 -144 65 -219 70 -50 3 -78 1 -78 -6z"/>
<path d="M3170 875 l0 -375 60 0 60 0 0 116 0 116 93 -116 92 -115 79 -1 79 0
-19 23 c-11 12 -62 70 -113 129 l-93 107 101 117 c56 64 101 121 101 126 0 4
-31 8 -68 8 l-69 0 -89 -112 -89 -112 -3 232 -2 232 -60 0 -60 0 0 -375z"/>
<path d="M3863 1210 c-130 -28 -208 -124 -184 -230 17 -78 54 -112 190 -180
94 -47 131 -81 131 -119 0 -105 -152 -121 -322 -33 -14 7 -9 -115 5 -126 41
-33 214 -47 299 -23 90 25 148 96 148 182 0 85 -63 159 -187 219 -37 18 -83
44 -101 57 -29 22 -33 29 -30 65 5 62 39 83 136 83 53 0 88 -6 111 -18 19 -9
36 -17 38 -17 1 0 3 27 3 60 0 55 -2 61 -24 70 -37 14 -166 20 -213 10z"/>
<path d="M1710 1150 l0 -50 100 0 100 0 0 -300 0 -300 65 0 65 0 0 300 0 300
100 0 100 0 0 50 0 50 -265 0 -265 0 0 -50z"/>
<path d="M2355 1010 c-27 -4 -67 -15 -87 -23 -37 -16 -38 -17 -38 -71 l0 -55
56 30 c85 44 168 37 193 -18 21 -45 16 -49 -95 -65 -146 -22 -194 -60 -201
-160 -8 -102 50 -161 157 -161 60 0 119 26 140 61 7 14 9 10 10 -15 l0 -33 60
0 60 0 0 185 c0 193 -7 233 -48 278 -38 43 -115 60 -207 47z m135 -300 c0 -74
-51 -130 -118 -130 -67 0 -96 82 -42 121 21 16 86 32 148 38 7 1 12 -11 12
-29z"/>
<path d="M2851 1010 c-89 -19 -141 -76 -141 -155 0 -41 5 -52 38 -85 22 -23
61 -46 99 -60 69 -25 103 -51 103 -80 0 -50 -114 -68 -192 -30 -23 11 -43 20
-45 20 -2 0 -3 -24 -3 -54 0 -54 0 -55 38 -67 52 -19 160 -16 214 4 65 25 100
66 105 124 8 83 -25 116 -198 193 -43 19 -52 60 -17 84 28 20 114 21 148 1 38
-22 40 -19 40 39 0 48 -3 54 -22 59 -50 12 -125 15 -167 7z"/>
<path d="M4402 1009 c-60 -11 -101 -37 -139 -87 -43 -56 -56 -110 -51 -202 9
-156 89 -233 243 -233 40 0 92 7 123 17 l52 18 0 53 0 52 -42 -20 c-112 -56
-230 -21 -253 76 l-7 27 171 0 171 0 0 53 c0 65 -20 134 -50 177 -41 57 -132
86 -218 69z m99 -99 c22 -12 49 -61 49 -90 0 -19 -6 -20 -110 -20 -60 0 -110
2 -110 5 0 21 32 75 55 93 30 24 83 29 116 12z"/>
<path d="M5005 1011 c-44 -11 -71 -27 -94 -57 l-21 -27 0 37 0 36 -60 0 -60 0
0 -250 0 -250 59 0 59 0 4 169 c3 154 5 172 24 198 31 41 85 59 125 43 51 -21
59 -56 59 -245 l0 -165 61 0 60 0 -3 203 c-3 192 -4 204 -26 240 -13 21 -36
44 -50 51 -36 18 -100 26 -137 17z"/>
<path d="M5537 1010 c-167 -29 -260 -206 -197 -374 23 -60 70 -108 129 -134
49 -20 166 -20 214 1 36 15 37 18 37 68 0 45 -2 50 -17 44 -65 -27 -98 -35
-131 -29 -82 14 -122 66 -122 160 0 66 21 109 71 147 34 25 112 27 158 4 19
-9 36 -17 38 -17 1 0 3 25 3 55 0 49 -3 57 -23 64 -39 15 -109 20 -160 11z"/>
<path d="M5981 1010 c-43 -9 -99 -45 -133 -85 -10 -11 -27 -45 -39 -75 -17
-44 -20 -69 -16 -125 7 -84 25 -132 69 -175 48 -49 91 -63 184 -63 59 1 94 6
128 21 45 21 46 22 46 68 0 51 4 50 -75 20 -79 -30 -161 -14 -203 39 -12 15
-22 38 -22 51 l0 24 168 2 167 3 -2 55 c-4 82 -21 135 -59 179 -48 55 -127 78
-213 61z m118 -114 c13 -13 26 -40 31 -60 l8 -36 -109 0 c-120 0 -124 2 -94
60 21 41 53 60 100 60 31 0 47 -6 64 -24z"/>
</g>
</svg>
